<?xml version="1.0" encoding="UTF-8" standalone="no"?>
<svg width="800" height="400" viewBox="0 0 800 400" xmlns="http://www.w3.org/2000/svg">
  <style>
    .land {
      fill: #e0e0e0;
      stroke: #bdbdbd;
      stroke-width: 0.5;
    }
    .ocean {
      fill: #f0f8ff;
    }
  </style>

  <!-- Ocean background -->
  <rect class="ocean" width="800" height="400" />

  <!-- Simplified world map shapes - main continents -->
  <!-- North America -->
  <path class="land" d="M50,80 C70,60 100,50 130,60 C160,70 180,90 200,100 C220,110 240,120 240,140 C240,160 220,180 200,190 C180,200 160,200 140,190 C120,180 100,170 80,170 C60,170 40,180 30,160 C20,140 30,100 50,80 Z" />

  <!-- South America -->
  <path class="land" d="M170,190 C190,180 200,190 205,210 C210,230 220,260 215,290 C210,320 195,340 180,350 C165,360 150,350 140,330 C130,310 120,280 130,250 C140,220 150,200 170,190 Z" />

  <!-- Europe -->
  <path class="land" d="M370,60 C390,50 420,40 440,50 C460,60 480,80 490,100 C500,120 500,140 480,150 C460,160 430,155 410,160 C390,165 370,170 360,160 C350,150 350,130 355,110 C360,90 370,60 370,60 Z" />

  <!-- Africa -->
  <path class="land" d="M350,160 C370,150 390,150 410,160 C430,170 450,190 460,220 C470,250 470,280 450,300 C430,320 400,330 370,320 C340,310 320,290 310,260 C300,230 300,200 320,180 C340,160 350,160 350,160 Z" />

  <!-- Asia -->
  <path class="land" d="M490,100 C510,90 540,80 570,80 C600,80 630,90 650,110 C670,130 680,160 680,190 C680,220 670,240 650,260 C630,280 600,290 570,280 C540,270 520,250 500,230 C480,210 470,180 470,150 C470,120 480,100 490,100 Z" />

  <!-- Australia -->
  <path class="land" d="M650,260 C670,250 690,240 710,250 C730,260 740,280 740,300 C740,320 730,340 710,350 C690,360 670,350 650,340 C630,330 620,310 630,290 C640,270 650,260 650,260 Z" />

  <!-- Antarctica -->
  <path class="land" d="M150,380 C200,370 300,360 400,370 C500,380 600,390 650,380 C650,390 600,396 500,398 C400,400 300,396 200,394 C100,392 150,390 150,380 Z" />
</svg>